<?xml version="1.0" ?><!DOCTYPE svg  PUBLIC '-//W3C//DTD SVG 1.1//EN'  'http://www.w3.org/Graphics/SVG/1.1/DTD/svg11.dtd'><svg enable-background="new 0 0 65 65" height="65px" version="1.1" viewBox="0 0 65 65" width="65px" xml:space="preserve" xmlns="http://www.w3.org/2000/svg" xmlns:xlink="http://www.w3.org/1999/xlink"><g id="Layer_2"><g><path d="M10.484,41.93c-0.19,0-0.378-0.055-0.541-0.159c-0.227-0.146-0.385-0.377-0.439-0.641    C9.169,39.491,9,37.807,9,36.125C9,22.409,20.159,11.25,33.875,11.25c0.123,0,0.245,0.004,0.366,0.008l0.185,0.006    c0.269,0.006,0.524,0.12,0.708,0.316c0.184,0.195,0.281,0.457,0.27,0.726l-0.988,23.402c-0.019,0.45-0.336,0.832-0.775,0.933    l-22.932,5.264C10.634,41.921,10.559,41.93,10.484,41.93z M33.361,13.256C20.984,13.529,11,23.684,11,36.125    c0,1.204,0.094,2.41,0.281,3.596l21.168-4.858L33.361,13.256z" fill="#FFBE06"/></g><g><path d="M33.875,61c-1.627,0-3.265-0.161-4.867-0.479c-0.533-0.105-0.884-0.618-0.79-1.154l4.213-23.874    c0.055-0.309,0.25-0.573,0.529-0.716l21.423-10.973c0.484-0.248,1.075-0.065,1.333,0.41c1.985,3.632,3.034,7.751,3.034,11.911    C58.75,49.841,47.591,61,33.875,61z M30.362,58.729C31.525,58.909,32.703,59,33.875,59C46.488,59,56.75,48.738,56.75,36.125    c0-3.5-0.807-6.967-2.341-10.088L34.314,36.329L30.362,58.729z" fill="#00A651"/></g><g><path d="M37.416,29.666c-0.188,0-0.375-0.053-0.54-0.158c-0.299-0.191-0.475-0.528-0.459-0.884l0.988-23.402    c0.023-0.543,0.447-0.929,1.021-0.958c8.873,0.193,17.031,5.156,21.29,12.95c0.129,0.236,0.158,0.516,0.078,0.773    c-0.079,0.258-0.259,0.473-0.5,0.596L37.872,29.556C37.729,29.63,37.572,29.666,37.416,29.666z M39.361,6.306l-0.874,20.688    l18.961-9.712C53.581,10.907,46.797,6.789,39.361,6.306z" fill="#92278F"/></g><g><path d="M14.965,51.692c-0.038,0-0.077-0.002-0.115-0.007c-0.268-0.031-0.512-0.169-0.677-0.383    c-2.305-2.988-3.92-6.507-4.669-10.173c-0.108-0.532,0.227-1.054,0.756-1.175l22.932-5.264c0.453-0.105,0.917,0.117,1.122,0.535    c0.204,0.418,0.093,0.921-0.267,1.215L15.596,51.468C15.417,51.614,15.194,51.692,14.965,51.692z M11.68,41.681    c0.675,2.695,1.859,5.281,3.467,7.573l14.309-11.653L11.68,41.681z" fill="#FFBE06"/></g><g><path d="M29.203,60.54c-0.065,0-0.13-0.006-0.195-0.02c-5.881-1.167-11.15-4.44-14.835-9.217    c-0.331-0.43-0.26-1.045,0.161-1.387l18.451-15.026c0.324-0.263,0.778-0.297,1.138-0.087c0.36,0.212,0.551,0.625,0.479,1.036    l-4.213,23.874c-0.047,0.265-0.198,0.5-0.42,0.651C29.6,60.48,29.403,60.54,29.203,60.54z M16.368,50.84    c3.128,3.72,7.341,6.345,12.032,7.498l3.564-20.2L16.368,50.84z" fill="#00A651"/></g><g><path d="M43.356,51.229v-1.904c-1.236-0.039-2.473-0.393-3.179-0.863l0.53-1.844    c0.766,0.451,1.864,0.863,3.062,0.863c1.236,0,2.08-0.608,2.08-1.551c0-0.883-0.687-1.451-2.139-1.981    c-2.061-0.746-3.395-1.688-3.395-3.513c0-1.688,1.177-2.982,3.159-3.336v-1.923h1.609v1.825c1.236,0.039,2.08,0.333,2.708,0.646    l-0.53,1.807c-0.471-0.217-1.334-0.668-2.669-0.668c-1.374,0-1.864,0.707-1.864,1.373c0,0.805,0.706,1.256,2.374,1.924    c2.198,0.824,3.179,1.884,3.179,3.63c0,1.668-1.158,3.14-3.316,3.493v2.021H43.356z" fill="#00A651"/></g><g><path d="M45.204,14.839c0,1.587-0.927,2.386-1.958,2.386c-1.054,0-1.911-0.811-1.922-2.258    c0-1.426,0.822-2.363,1.98-2.363C44.498,12.604,45.204,13.484,45.204,14.839z M42.413,14.92c-0.012,0.869,0.301,1.506,0.869,1.506    c0.567,0,0.845-0.603,0.845-1.518c0-0.834-0.231-1.506-0.845-1.506C42.703,13.402,42.413,14.074,42.413,14.92z M43.27,20.387    l4.366-7.783h0.811l-4.366,7.783H43.27z M50.393,17.966c0,1.575-0.915,2.386-1.958,2.386c-1.042,0-1.911-0.811-1.911-2.27    c0-1.414,0.822-2.363,1.969-2.363C49.686,15.719,50.393,16.611,50.393,17.966z M47.602,18.047    c-0.012,0.857,0.301,1.506,0.869,1.506c0.579,0,0.845-0.603,0.845-1.518c0-0.846-0.231-1.506-0.845-1.506    C47.891,16.529,47.602,17.201,47.602,18.047z" fill="#92278F"/></g><path d="M27.994,28.546c-0.251,0.212-0.549,0.408-0.894,0.582c0.458,0.309,0.719,0.638,0.719,0.917   c0,0.778-1.958,1.955-4.909,1.955S18,30.823,18,30.045c0-0.279,0.26-0.608,0.719-0.917c-0.345-0.174-0.643-0.37-0.894-0.582   C17.304,28.985,17,29.497,17,30.045C17,31.678,19.646,33,22.909,33s5.909-1.322,5.909-2.955   C28.818,29.497,28.514,28.985,27.994,28.546z" fill="#FFBE06"/><path d="M27.994,25.546c-0.251,0.212-0.549,0.408-0.894,0.582c0.458,0.309,0.719,0.638,0.719,0.917   c0,0.778-1.958,1.955-4.909,1.955S18,27.823,18,27.045c0-0.279,0.26-0.608,0.719-0.917c-0.345-0.174-0.643-0.37-0.894-0.582   C17.304,25.985,17,26.497,17,27.045C17,28.678,19.646,30,22.909,30s5.909-1.322,5.909-2.955   C28.818,26.497,28.514,25.985,27.994,25.546z" fill="#FFBE06"/><path d="M22.909,22.091c2.951,0,4.909,1.176,4.909,1.954S25.86,26,22.909,26S18,24.823,18,24.045   S19.958,22.091,22.909,22.091 M22.909,21.091c-3.263,0-5.909,1.323-5.909,2.954C17,25.678,19.646,27,22.909,27   s5.909-1.322,5.909-2.955C28.818,22.414,26.172,21.091,22.909,21.091L22.909,21.091z" fill="#FFBE06"/></g><g id="Layer_3"/></svg>